# xmcd
#
# Track frame offsets: 
#        150
#        29407
#        49382
#        62652
#        81427
#        106387
#        127825
#        149837
#        172602
#        189245
#
# Disc length: 2760 seconds
#
# Revision: 4
# Processed by: cddbd v1.5.2PL0 Copyright (c) Steve Scherf et al.
# Submitted via: ExactAudioCopy v0.99pb4
#
DISCID=870ac60a
DTITLE=Eagles - Greatest Hits, Vol. 2
DYEAR=1982
DGENRE=Rock
TTITLE0=Hotel California
TTITLE1=Heartache Tonight
TTITLE2=Seven Bridges Road
TTITLE3=Victim Of Love
TTITLE4=The Sad Cafe
TTITLE5=Life In The Fast Lane
TTITLE6=I Can't Tell You Why
TTITLE7=New Kid In Town
TTITLE8=The Long Run
TTITLE9=After The Thrill Is Gone
EXTD=YEAR: 1982
EXTT0=
EXTT1=
EXTT2=
EXTT3=
EXTT4=
EXTT5=
EXTT6=
EXTT7=
EXTT8=
EXTT9=
PLAYORDER=
